<?xml version="1.0" standalone="no"?>
<!DOCTYPE svg PUBLIC "-//W3C//DTD SVG 20010904//EN"
 "http://www.w3.org/TR/2001/REC-SVG-20010904/DTD/svg10.dtd">
<svg version="1.0" xmlns="http://www.w3.org/2000/svg"
 width="183.000000pt" height="45.000000pt" viewBox="0 0 183.000000 45.000000"
 preserveAspectRatio="xMidYMid meet">

<g transform="translate(0.000000,45.000000) scale(0.100000,-0.100000)"
fill="#000000" stroke="none">
<path d="M176 289 c-30 -23 -35 -69 -10 -90 9 -7 14 -22 11 -36 -5 -27 0 -28
27 -8 11 8 30 15 42 15 34 0 74 37 74 70 0 36 -41 70 -85 70 -18 0 -44 -9 -59
-21z"/>
<path d="M703 215 c0 -38 2 -54 4 -35 3 19 10 38 16 42 9 6 9 8 0 8 -6 0 -14
12 -16 28 -2 15 -4 -4 -4 -43z"/>
<path d="M833 215 c0 -38 2 -54 4 -35 3 19 10 38 16 42 9 6 9 8 0 8 -6 0 -14
12 -16 28 -2 15 -4 -4 -4 -43z"/>
<path d="M1380 235 c0 -25 5 -45 10 -45 6 0 10 20 10 45 0 25 -4 45 -10 45 -5
0 -10 -20 -10 -45z"/>
<path d="M638 263 c29 -6 24 -25 -9 -34 l-24 -7 25 -1 25 -2 -25 -21 c-22 -18
-23 -20 -5 -17 21 4 58 66 49 81 -3 4 -17 7 -32 7 -24 -2 -25 -2 -4 -6z"/>
<path d="M768 263 c29 -6 24 -25 -9 -34 l-24 -7 25 -1 25 -2 -25 -21 c-22 -18
-23 -20 -5 -17 21 4 58 66 49 81 -3 4 -17 7 -32 7 -24 -2 -25 -2 -4 -6z"/>
<path d="M887 264 c-15 -15 -7 -53 13 -59 28 -9 25 -23 -7 -28 -16 -2 -1 -4
32 -4 33 0 48 2 33 4 -33 5 -36 19 -7 28 15 5 19 14 17 33 -3 23 -8 27 -38 30
-20 2 -39 0 -43 -4z m70 -20 c6 -15 -11 -34 -32 -34 -21 0 -38 19 -32 34 8 21
56 21 64 0z"/>
<path d="M1083 263 c47 -5 49 -23 2 -23 -28 0 -35 -4 -35 -20 0 -11 7 -20 15
-20 26 0 16 -19 -12 -23 -16 -2 1 -4 37 -4 36 0 53 2 38 4 -34 5 -37 20 -5 26
12 2 3 5 -20 6 -54 1 -57 21 -3 21 33 0 40 3 40 20 0 17 -6 20 -47 18 -44 -1
-45 -2 -10 -5z"/>
<path d="M1180 260 c0 -5 15 -10 34 -10 32 0 35 -3 39 -32 3 -29 4 -27 5 10
l2 42 -40 0 c-22 0 -40 -4 -40 -10z"/>
<path d="M1301 257 c-18 -23 -2 -49 28 -45 20 2 26 8 26 28 0 29 -34 40 -54
17z m44 -18 c0 -7 -8 -15 -17 -17 -18 -3 -25 18 -11 32 10 10 28 1 28 -15z"/>
<path d="M1310 172 c0 -20 5 -22 48 -20 39 1 41 2 12 5 -19 2 -41 11 -47 20
-12 15 -13 14 -13 -5z"/>
<path d="M1188 173 c17 -2 47 -2 65 0 17 2 3 4 -33 4 -36 0 -50 -2 -32 -4z"/>
</g>
</svg>
